<?xml version="1.0" standalone="no"?>
<!DOCTYPE svg PUBLIC "-//W3C//DTD SVG 20010904//EN"
 "http://www.w3.org/TR/2001/REC-SVG-20010904/DTD/svg10.dtd">
<svg version="1.0" xmlns="http://www.w3.org/2000/svg"
 width="1182.000000pt" height="1182.000000pt" viewBox="0 0 1182.000000 1182.000000"
 preserveAspectRatio="xMidYMid meet">

<g transform="translate(0.000000,1182.000000) scale(0.100000,-0.100000)"
fill="#b98ecc" stroke="none">
<path d="M8266 8459 c-106 -36 -222 -124 -309 -234 -18 -22 4 -4 48 41 87 87
171 144 261 174 89 31 97 28 132 -37 45 -86 63 -156 71 -278 l8 -110 1 100 c2
118 -13 189 -64 293 -40 83 -48 86 -148 51z"/>
<path d="M8917 8460 c-14 -11 -29 -30 -32 -41 -7 -20 -8 -20 -35 10 -45 49
-100 38 -100 -20 0 -28 78 -141 112 -163 21 -13 65 25 109 93 34 53 37 93 9
121 -25 25 -31 25 -63 0z"/>
<path d="M8292 8195 c-30 -62 -27 -71 4 -12 14 27 24 51 22 53 -3 2 -14 -17
-26 -41z"/>
<path d="M7277 8162 l-69 -15 7 -71 c10 -96 29 -164 66 -238 34 -68 128 -173
181 -201 29 -16 30 -16 8 -1 -56 39 -140 135 -170 193 -34 69 -55 146 -65 237
l-6 62 33 12 c50 18 255 25 319 10 118 -27 236 -105 303 -200 10 -15 9 -10 -3
10 -53 93 -173 177 -292 205 -81 19 -224 18 -312 -3z"/>
<path d="M8069 8124 c-12 -25 -19 -47 -17 -50 2 -2 14 19 25 46 12 28 19 50
17 50 -3 0 -14 -21 -25 -46z"/>
<path d="M6870 8122 c-16 -13 -24 -32 -27 -69 l-5 -51 -36 25 c-46 31 -88 28
-115 -9 -53 -71 50 -160 217 -186 l55 -9 12 71 c18 104 16 189 -4 220 -21 31
-64 35 -97 8z"/>
<path d="M8031 8016 c-6 -25 -11 -53 -10 -63 0 -17 1 -17 8 0 4 10 11 18 16
17 5 -1 11 4 14 11 2 7 -2 10 -12 6 -13 -5 -14 0 -5 30 5 19 7 37 5 39 -2 3
-10 -15 -16 -40z"/>
<path d="M7746 8014 c-4 -9 -5 -18 -3 -20 1 -2 9 1 17 6 11 7 12 12 4 20 -8 8
-13 7 -18 -6z"/>
<path d="M8462 7990 c0 -14 2 -19 5 -12 2 6 2 18 0 25 -3 6 -5 1 -5 -13z"/>
<path d="M7610 7950 c-12 -8 -12 -10 2 -15 26 -10 43 -2 26 12 -8 7 -19 8 -28
3z"/>
<path d="M7795 7890 c33 -33 62 -60 64 -60 3 0 -21 27 -54 60 -33 33 -62 60
-64 60 -3 0 21 -27 54 -60z"/>
<path d="M8012 7900 c0 -19 2 -27 5 -17 2 9 2 25 0 35 -3 9 -5 1 -5 -18z"/>
<path d="M8277 7923 c-4 -3 -7 -11 -7 -17 0 -6 5 -5 12 2 6 6 9 14 7 17 -3 3
-9 2 -12 -2z"/>
<path d="M7540 7916 c0 -3 9 -10 20 -16 11 -6 20 -8 20 -6 0 3 -9 10 -20 16
-11 6 -20 8 -20 6z"/>
<path d="M1787 7865 c-263 -67 -498 -340 -670 -775 -103 -262 -178 -570 -218
-900 -17 -136 -18 -489 -1 -605 66 -459 207 -800 417 -1010 96 -96 164 -142
273 -183 60 -23 82 -26 202 -27 124 0 140 2 198 26 104 44 171 90 270 184 279
265 524 707 783 1415 l68 184 66 13 c82 15 168 54 270 123 42 28 78 50 81 48
2 -3 -3 -42 -11 -88 -28 -158 -47 -376 -48 -530 0 -370 109 -581 310 -598 88
-7 120 4 178 62 82 82 141 216 219 496 25 91 36 120 41 105 54 -145 120 -205
226 -205 69 0 110 22 172 90 61 67 108 150 168 290 23 55 43 99 45 97 1 -1 22
-29 46 -62 25 -33 89 -101 144 -151 54 -50 116 -106 136 -125 l37 -34 -77
-102 c-94 -123 -151 -231 -131 -245 10 -7 8 -8 -6 -3 -151 55 -267 73 -364 57
-241 -40 -389 -192 -447 -457 -20 -97 -23 -321 -5 -445 79 -535 394 -1091 759
-1339 298 -202 608 -211 867 -26 209 149 383 474 486 913 19 81 38 141 44 138
6 -2 84 -63 175 -135 433 -347 739 -501 1025 -517 194 -11 366 53 514 192 85
80 100 113 61 134 -26 14 -42 5 -105 -60 -126 -129 -265 -185 -450 -183 -268
4 -560 152 -1010 513 -82 66 -161 129 -174 141 l-25 20 22 157 c43 311 55 475
54 773 l-1 286 35 34 34 33 60 -66 c112 -124 215 -170 380 -171 155 0 278 39
400 128 26 19 73 40 110 50 145 36 262 111 524 334 145 122 146 123 171 107
13 -9 32 -31 41 -49 53 -103 142 -160 248 -161 71 0 148 24 191 59 l30 25 -40
-16 c-52 -21 -159 -22 -206 -2 -20 9 -69 46 -109 82 -101 93 -106 82 -6 -13
91 -88 130 -105 214 -100 33 3 48 1 41 -6 -5 -5 -41 -11 -80 -13 -122 -7 -186
29 -269 154 l-48 74 40 0 c63 0 110 -18 174 -67 108 -83 203 -112 269 -83 14
6 8 7 -20 4 -62 -9 -115 11 -215 78 -65 44 -107 65 -148 74 l-57 12 56 1 c45
1 68 -5 115 -30 206 -110 204 -109 263 -108 l56 2 -55 7 c-67 8 -87 16 -176
71 -38 23 -82 48 -99 55 -23 10 -25 13 -10 14 36 0 90 -19 150 -55 45 -26 52
-29 30 -10 -16 14 -55 38 -85 53 -47 23 -67 27 -142 27 -49 0 -88 1 -88 3 0 1
32 23 71 48 99 64 223 121 315 143 44 11 70 20 59 20 -44 2 -176 -42 -280 -94
-116 -57 -239 -145 -465 -331 -151 -124 -227 -178 -315 -222 -72 -36 -165 -65
-165 -51 0 5 17 28 38 52 74 83 122 145 205 268 206 306 348 645 437 1042 12
55 37 126 56 163 19 36 34 72 34 80 0 8 4 14 8 14 5 0 9 8 9 18 -1 100 3 124
21 118 16 -6 16 -5 0 7 -9 7 -18 24 -21 37 -2 14 -5 -7 -6 -46 -1 -83 -21
-156 -64 -239 -44 -84 -207 -246 -325 -323 -116 -76 -127 -80 -152 -50 -33 38
-108 199 -121 259 -19 91 -7 250 24 329 15 36 20 56 12 45 -8 -11 -18 -24 -22
-30 -4 -5 -8 -14 -8 -20 0 -5 -8 -42 -18 -82 -9 -40 -17 -96 -17 -125 1 -117
48 -260 122 -365 18 -26 36 -51 39 -56 16 -23 243 137 354 250 87 89 85 97 29
-100 -56 -197 -163 -452 -247 -592 l-42 -70 -7 66 c-10 108 -39 151 -181 269
-112 93 -180 169 -219 245 -19 38 -28 49 -23 30 17 -75 116 -191 302 -353 82
-71 113 -133 113 -227 0 -63 -16 -96 -121 -250 -162 -238 -349 -406 -528 -477
-81 -31 -252 -31 -332 1 -63 24 -132 80 -190 153 l-37 48 28 57 c116 231 53
490 -145 605 l-40 23 -3 100 c-6 205 -71 953 -99 1130 -13 84 -108 142 -193
116 -45 -13 -100 -72 -100 -107 0 -13 11 -115 25 -227 22 -182 67 -634 80
-812 3 -38 8 -89 11 -112 l5 -42 72 -4 72 -3 -81 -2 c-210 -5 -408 -119 -717
-411 l-87 -83 -57 43 c-102 78 -221 202 -244 255 -30 66 -36 179 -15 264 43
174 161 334 270 365 64 19 101 12 123 -22 22 -33 43 -129 41 -185 -2 -69 30
-99 65 -60 34 38 13 212 -34 289 -67 108 -188 120 -350 36 -153 -79 -293 -243
-351 -412 -17 -50 -23 -91 -24 -166 -1 -89 -5 -110 -38 -195 -63 -162 -127
-281 -182 -337 -27 -29 -57 -53 -66 -53 -24 0 -46 26 -58 68 -22 80 -5 362 35
579 12 65 13 87 3 108 -24 53 -119 78 -178 48 -42 -22 -52 -52 -81 -248 -33
-230 -130 -614 -199 -793 -35 -90 -99 -195 -129 -211 -63 -34 -118 11 -150
124 -56 193 -12 752 85 1091 17 59 9 93 -28 118 -54 38 -85 23 -298 -139 -63
-48 -144 -102 -180 -120 -68 -34 -139 -60 -145 -53 -2 2 8 60 22 128 33 162
37 325 9 388 -48 106 -174 109 -239 5 -33 -53 -46 -96 -58 -183 -18 -148 20
-306 91 -377 l38 -39 -54 -149 c-154 -421 -299 -742 -456 -1002 -301 -500
-565 -661 -859 -522 -177 84 -323 334 -397 679 -46 211 -56 324 -56 590 0 515
95 1000 281 1430 111 258 265 466 388 521 91 42 214 9 275 -74 92 -125 114
-366 55 -587 -31 -115 -105 -273 -169 -358 -50 -68 -57 -96 -26 -112 30 -16
50 0 107 82 228 331 278 775 115 1018 -43 63 -117 123 -182 146 -64 22 -192
27 -263 9z m1333 -1114 c18 -35 11 -199 -15 -330 -13 -68 -27 -126 -29 -129
-10 -9 -27 52 -37 130 -14 111 4 250 43 326 14 27 24 28 38 3z m3068 -458
c-16 -2 -40 -2 -55 0 -16 2 -3 4 27 4 30 0 43 -2 28 -4z m-84 -105 c3 -57 9
-129 12 -160 l6 -57 47 -4 c42 -3 41 -4 -14 -5 -173 -6 -306 -167 -261 -315
30 -98 106 -171 208 -198 l46 -13 7 -90 c16 -232 6 -876 -14 -876 -4 0 -61 48
-126 106 -205 183 -459 399 -539 459 -73 56 -108 89 -45 45 l30 -22 25 23 c35
32 90 148 104 216 19 92 9 238 -22 305 -32 70 -63 116 -116 172 l-41 44 77 75
c221 214 376 327 517 378 92 33 91 34 99 -83z m368 -36 c40 -62 50 -94 55
-172 6 -79 -5 -148 -32 -214 l-17 -39 -29 54 c-17 29 -42 67 -57 83 -15 16
-21 26 -15 22 10 -6 12 31 6 175 l-6 183 35 -28 c20 -14 47 -43 60 -64z m-116
-253 c3 -6 -5 -3 -20 6 -14 10 -26 19 -26 22 0 7 39 -17 46 -28z m-173 -16
c-7 -2 -21 -2 -30 0 -10 3 -4 5 12 5 17 0 24 -2 18 -5z m-44 -209 c6 -114 9
-209 6 -212 -3 -3 -5 8 -5 25 0 26 -5 31 -40 42 -86 26 -151 124 -136 206 11
58 100 143 152 145 7 0 15 -72 23 -206z m182 149 c13 -16 12 -17 -3 -4 -10 7
-18 15 -18 17 0 8 8 3 21 -13z m94 -183 c-7 -8 -15 -28 -18 -45 -2 -16 -4 6
-5 50 l-1 80 19 -35 c15 -29 16 -37 5 -50z m-1117 -44 c22 -24 53 -68 68 -97
25 -49 26 -60 21 -144 -3 -54 -14 -115 -27 -152 l-22 -62 -71 48 c-40 26 -107
67 -149 90 -43 24 -78 45 -78 48 0 32 188 313 209 313 5 0 27 -20 49 -44z
m-273 -264 c-3 -3 -11 0 -18 7 -9 10 -8 11 6 5 10 -3 15 -9 12 -12z m-147 -31
c58 -19 70 -26 61 -37 -18 -22 -24 -177 -9 -230 19 -68 73 -119 143 -134 47
-11 65 -10 122 4 59 15 131 45 174 75 13 8 13 12 0 27 -36 46 220 -167 536
-444 183 -161 221 -199 223 -224 2 -16 -4 -80 -13 -141 -52 -359 -140 -636
-260 -816 -55 -83 -158 -182 -225 -216 -190 -96 -448 -63 -678 88 -291 190
-567 637 -676 1097 -62 259 -61 531 2 696 24 64 84 156 124 189 39 33 117 72
165 85 67 16 230 6 311 -19z m329 -173 c50 -32 97 -67 105 -76 12 -15 11 -16
-5 -3 -16 12 -21 11 -45 -11 -42 -40 -86 -58 -140 -58 -92 0 -126 53 -120 189
l3 80 55 -31 c30 -17 96 -57 147 -90z m168 -8 c10 -11 16 -20 13 -20 -3 0 -13
9 -23 20 -10 11 -16 20 -13 20 3 0 13 -9 23 -20z"/>
<path d="M5414 4332 c-58 -28 -109 -84 -125 -140 -8 -26 -13 -92 -13 -148 l0
-101 -60 49 c-78 63 -137 91 -203 96 -99 8 -177 -40 -208 -127 -35 -101 -6
-191 92 -282 124 -114 401 -216 640 -235 81 -7 82 -6 87 17 6 28 62 430 70
505 15 125 -40 310 -106 358 -39 28 -122 32 -174 8z"/>
<path d="M8002 7798 c-2 -54 -5 -66 -16 -62 -10 4 -16 -3 -18 -21 -3 -26 -4
-26 -21 -8 -10 10 -24 27 -32 38 -12 16 -14 16 -9 2 12 -34 -4 -65 -38 -72
l-32 -7 23 -19 c23 -19 23 -20 5 -41 -14 -16 -16 -22 -6 -25 8 -3 -6 -26 -41
-62 -30 -32 -71 -83 -92 -115 -35 -56 -86 -174 -84 -199 0 -6 8 11 18 38 38
107 94 197 174 283 54 56 87 68 87 29 0 -31 9 -38 31 -26 24 12 24 13 -6 -67
-14 -37 -24 -69 -21 -71 2 -2 14 25 26 59 38 103 38 103 61 74 11 -15 27 -26
34 -26 11 0 15 -23 18 -102 l3 -103 2 124 2 123 28 -7 c15 -4 32 -8 37 -9 6
-1 31 -13 56 -28 53 -31 159 -68 191 -67 13 0 -1 6 -30 14 -99 24 -218 87
-247 132 -17 25 -17 26 2 21 12 -3 24 1 31 12 14 23 6 30 -37 30 l-36 1 25 20
c46 38 129 117 162 156 18 21 -7 0 -56 -45 -74 -69 -91 -81 -98 -68 -5 9 -6
22 -2 29 4 6 -3 2 -16 -11 -32 -33 -36 -20 -7 25 29 46 62 111 52 101 -4 -4
-24 -35 -44 -70 -21 -35 -43 -62 -49 -60 -7 1 -13 -4 -14 -10 -1 -7 -5 25 -8
72 l-6 85 -2 -67z"/>
<path d="M8431 7825 c-35 -8 -66 -17 -70 -21 -3 -3 12 -2 34 3 22 4 99 8 170
8 121 -1 135 -3 207 -32 82 -32 181 -98 237 -157 l35 -36 -95 -92 c-139 -137
-255 -196 -426 -218 l-68 -9 75 4 c137 8 263 62 386 166 68 57 146 148 141
163 -8 25 -147 130 -222 167 -133 65 -267 83 -404 54z"/>
<path d="M7875 7796 c10 -14 19 -26 22 -26 7 0 -17 39 -28 46 -6 3 -3 -5 6
-20z"/>
<path d="M8134 7788 l-19 -23 23 19 c21 18 27 26 19 26 -2 0 -12 -10 -23 -22z"/>
<path d="M8290 7780 c-8 -5 -10 -10 -5 -10 6 0 17 5 25 10 8 5 11 10 5 10 -5
0 -17 -5 -25 -10z"/>
<path d="M7780 7766 c0 -2 8 -10 18 -17 15 -13 16 -12 3 4 -13 16 -21 21 -21
13z"/>
<path d="M7820 7736 c0 -2 8 -10 18 -17 15 -13 16 -12 3 4 -13 16 -21 21 -21
13z"/>
<path d="M8468 7733 c6 -2 18 -2 25 0 6 3 1 5 -13 5 -14 0 -19 -2 -12 -5z"/>
<path d="M7665 7664 c19 -11 57 -18 105 -20 l75 -3 -60 8 c-33 4 -71 11 -85
15 -55 16 -64 16 -35 0z"/>
<path d="M8185 7660 c-34 -17 -36 -19 -11 -14 16 3 39 12 50 20 29 20 8 17
-39 -6z"/>
<path d="M8466 7672 c-3 -6 -1 -14 5 -17 15 -10 25 3 12 16 -7 7 -13 7 -17 1z"/>
<path d="M9423 7623 c-34 -7 -81 -59 -89 -100 -16 -85 13 -241 66 -356 16 -33
11 -34 174 39 208 93 270 189 163 254 -44 27 -72 25 -134 -10 -29 -16 -54 -30
-55 -30 -2 0 -2 26 0 59 4 70 -14 113 -58 136 -16 8 -33 14 -37 14 -4 -1 -18
-4 -30 -6z"/>
<path d="M7503 7613 c4 -7 0 -13 -10 -16 -10 -3 -3 -5 16 -6 19 0 32 0 30 2
-2 1 -13 9 -23 17 -11 8 -17 10 -13 3z"/>
<path d="M7143 7569 c-137 -89 -234 -242 -277 -441 l-6 -26 53 21 c73 29 209
29 291 -1 33 -12 64 -22 70 -21 6 0 -25 14 -69 30 -89 34 -186 41 -264 20 -23
-7 -45 -10 -48 -7 -10 9 30 123 70 199 48 95 121 177 201 229 33 21 55 38 50
38 -5 0 -37 -18 -71 -41z"/>
<path d="M8175 7600 c80 -16 302 -32 405 -28 l105 4 -130 2 c-71 2 -177 9
-235 17 -58 8 -123 14 -145 14 l-40 -1 40 -8z"/>
<path d="M7438 7583 c7 -3 16 -2 19 1 4 3 -2 6 -13 5 -11 0 -14 -3 -6 -6z"/>
<path d="M7580 7530 c-31 -4 -85 -17 -121 -29 -62 -20 -213 -100 -234 -123 -5
-6 10 1 35 16 126 77 229 113 380 134 36 5 49 9 30 9 -19 0 -60 -3 -90 -7z"/>
<path d="M8460 7520 c0 -5 7 -10 16 -10 8 0 12 5 9 10 -3 6 -10 10 -16 10 -5
0 -9 -4 -9 -10z"/>
<path d="M1944 7510 c-31 -12 -38 -27 -44 -88 l-5 -53 -34 26 c-66 48 -141 23
-141 -49 0 -57 61 -105 179 -140 73 -21 118 -21 125 2 13 49 27 197 21 230 -7
41 -40 82 -64 81 -9 0 -26 -4 -37 -9z"/>
<path d="M7619 7433 c-13 -16 -12 -17 4 -4 9 7 17 15 17 17 0 8 -8 3 -21 -13z"/>
<path d="M8453 7423 c26 -2 67 -2 90 0 23 2 2 3 -48 3 -49 0 -68 -1 -42 -3z"/>
<path d="M7593 7398 c-15 -20 -25 -38 -20 -38 3 0 12 11 21 25 17 26 16 35 -1
13z"/>
<path d="M7906 7365 c-9 -26 -7 -32 5 -12 6 10 9 21 6 23 -2 3 -7 -2 -11 -11z"/>
<path d="M7824 7169 c-77 -181 -86 -204 -50 -139 33 61 129 291 123 296 -2 2
-35 -68 -73 -157z"/>
<path d="M8370 7293 c0 -6 8 -17 18 -24 16 -13 16 -13 2 6 -8 11 -16 22 -17
24 -2 2 -3 0 -3 -6z"/>
<path d="M8052 7270 c0 -14 2 -19 5 -12 2 6 2 18 0 25 -3 6 -5 1 -5 -13z"/>
<path d="M8230 7286 c0 -2 8 -10 18 -17 15 -13 16 -12 3 4 -13 16 -21 21 -21
13z"/>
<path d="M8408 7283 c6 -2 18 -2 25 0 6 3 1 5 -13 5 -14 0 -19 -2 -12 -5z"/>
<path d="M7405 7255 c-27 -7 -70 -14 -95 -15 -30 -2 -37 -4 -20 -7 29 -6 148
14 170 27 19 12 8 11 -55 -5z"/>
<path d="M7228 7243 c7 -3 16 -2 19 1 4 3 -2 6 -13 5 -11 0 -14 -3 -6 -6z"/>
<path d="M8031 7203 c-1 -6 -4 -20 -7 -30 -5 -17 -5 -17 6 0 6 10 9 23 6 30
-3 9 -5 9 -5 0z"/>
<path d="M7631 7174 c0 -11 3 -14 6 -6 3 7 2 16 -1 19 -3 4 -6 -2 -5 -13z"/>
<path d="M7621 7124 c0 -11 3 -14 6 -6 3 7 2 16 -1 19 -3 4 -6 -2 -5 -13z"/>
<path d="M7308 7093 c12 -2 32 -2 45 0 12 2 2 4 -23 4 -25 0 -35 -2 -22 -4z"/>
<path d="M8618 7004 c8 -148 -26 -284 -100 -400 l-30 -48 -25 49 c-33 65 -75
109 -143 147 -30 17 -75 46 -100 65 l-45 35 44 -41 c24 -23 67 -55 97 -71 83
-48 153 -142 154 -210 l1 -25 25 30 c37 45 102 181 120 255 18 70 22 224 6
275 -6 21 -8 3 -4 -61z"/>
<path d="M4186 7040 c-64 -56 -53 -144 32 -266 48 -67 142 -164 160 -164 17 0
202 213 222 255 11 23 20 60 20 82 0 53 -34 83 -93 83 -34 0 -46 -6 -81 -43
-22 -23 -46 -51 -52 -62 -10 -17 -13 -14 -28 32 -21 63 -73 113 -116 113 -18
0 -42 -11 -64 -30z"/>
<path d="M8501 6974 c0 -11 3 -14 6 -6 3 7 2 16 -1 19 -3 4 -6 -2 -5 -13z"/>
<path d="M7293 6911 c-112 -81 -154 -196 -119 -326 29 -111 106 -223 203 -297
68 -52 113 -82 113 -75 0 2 -19 17 -42 32 -201 133 -311 365 -250 524 9 25 21
43 25 40 4 -2 15 10 24 28 8 18 26 39 39 48 l24 16 -4 -58 c-4 -45 -3 -50 3
-23 5 19 9 27 10 17 2 -31 49 -114 99 -174 27 -32 95 -96 152 -143 117 -95
137 -114 163 -150 17 -24 17 -24 0 8 -10 19 -71 79 -136 135 -193 166 -262
264 -262 370 1 31 0 57 -1 57 0 0 -19 -13 -41 -29z"/>
<path d="M8140 6886 c0 -2 8 -10 18 -17 15 -13 16 -12 3 4 -13 16 -21 21 -21
13z"/>
<path d="M9120 6819 c-22 -18 -22 -19 -3 -10 12 6 25 16 28 21 9 15 3 12 -25
-11z"/>
<path d="M9070 6790 c-8 -6 -46 -19 -85 -31 -38 -11 -88 -31 -110 -44 -81 -47
-147 -139 -175 -243 -8 -31 -15 -42 -28 -40 -18 3 -21 -21 -8 -54 6 -12 0 -18
-26 -23 -18 -4 -41 -12 -51 -17 -17 -9 -18 -11 -2 -28 9 -10 27 -21 41 -24 13
-4 24 -11 24 -16 0 -6 7 -10 15 -10 11 0 14 -11 12 -47 -2 -43 0 -48 20 -51
12 -2 34 3 48 11 24 12 32 11 75 -10 61 -29 153 -53 205 -53 91 0 241 57 321
121 21 18 59 45 83 60 25 16 40 29 35 29 -6 0 -50 -27 -98 -61 -133 -93 -228
-129 -342 -129 -81 0 -157 24 -199 63 -19 17 -35 35 -35 39 0 4 32 -5 72 -18
54 -19 77 -23 92 -15 12 5 37 12 57 16 51 8 148 73 189 126 33 42 32 42 -28
-14 -95 -90 -182 -119 -289 -97 -32 7 -71 20 -88 29 l-30 16 75 6 75 5 -86 2
c-104 2 -120 13 -93 64 10 18 17 36 16 39 -3 13 81 100 126 131 24 17 75 42
111 55 40 15 52 22 31 18 -59 -10 -157 -61 -210 -111 -51 -47 -64 -49 -34 -4
14 20 14 22 1 10 -8 -8 -25 -33 -36 -55 -21 -41 -29 -27 -11 20 7 17 7 24 0
20 -35 -22 25 108 76 164 45 51 97 82 185 110 36 12 75 28 85 36 21 16 17 20
-6 5z"/>
<path d="M7266 6740 c12 -119 94 -238 261 -377 62 -51 124 -110 138 -131 14
-20 25 -32 25 -26 0 24 -61 93 -138 157 -168 141 -250 249 -278 370 l-14 62 6
-55z"/>
<path d="M7214 6685 c2 -79 6 -98 36 -155 41 -81 161 -203 245 -249 33 -19 80
-49 105 -69 39 -31 41 -32 20 -7 -14 15 -63 53 -110 83 -178 115 -276 251
-291 404 l-7 83 2 -90z"/>
<path d="M9279 6703 c-13 -15 -12 -15 11 -3 34 17 36 20 18 20 -9 0 -22 -7
-29 -17z"/>
<path d="M9413 6713 c-18 -6 -16 -23 1 -23 17 0 30 16 19 23 -5 2 -14 2 -20 0z"/>
<path d="M9517 6694 c-14 -14 -7 -35 11 -32 9 2 17 10 17 17 0 16 -18 25 -28
15z"/>
<path d="M9073 6603 c9 -2 25 -2 35 0 9 3 1 5 -18 5 -19 0 -27 -2 -17 -5z"/>
<path d="M9457 6603 c-13 -12 -7 -23 12 -23 26 0 35 16 15 24 -19 7 -19 7 -27
-1z"/>
<path d="M8859 6573 c-13 -16 -12 -17 4 -4 9 7 17 15 17 17 0 8 -8 3 -21 -13z"/>
<path d="M8809 6533 l-24 -28 28 24 c15 14 27 26 27 28 0 8 -8 1 -31 -24z"/>
<path d="M9409 6494 c-11 -14 -10 -16 9 -12 13 1 23 7 23 13 1 17 -17 16 -32
-1z"/>
<path d="M9358 6473 c7 -3 16 -2 19 1 4 3 -2 6 -13 5 -11 0 -14 -3 -6 -6z"/>
<path d="M9293 6463 c9 -2 23 -2 30 0 6 3 -1 5 -18 5 -16 0 -22 -2 -12 -5z"/>
<path d="M8808 6364 c-39 -21 -35 -28 5 -8 37 19 44 24 31 24 -5 -1 -21 -8
-36 -16z"/>
<path d="M9525 6340 c-3 -5 1 -10 10 -10 9 0 13 5 10 10 -3 6 -8 10 -10 10 -2
0 -7 -4 -10 -10z"/>
<path d="M8749 6323 c-13 -16 -12 -17 4 -4 16 13 21 21 13 21 -2 0 -10 -8 -17
-17z"/>
<path d="M7761 6294 c0 -11 3 -14 6 -6 3 7 2 16 -1 19 -3 4 -6 -2 -5 -13z"/>
<path d="M8963 6163 c20 -2 54 -2 75 0 20 2 3 4 -38 4 -41 0 -58 -2 -37 -4z"/>
<path d="M9804 6031 c-40 -25 -59 -76 -50 -142 l7 -48 -57 29 c-31 17 -67 30
-81 30 -36 0 -77 -25 -91 -55 -41 -90 30 -173 187 -217 80 -22 225 -35 234
-21 4 6 7 82 9 169 2 128 -1 166 -14 196 -34 77 -82 97 -144 59z"/>
<path d="M10721 5569 c-102 -20 -248 -112 -328 -206 -117 -140 -175 -277 -177
-423 l0 -85 -71 -70 c-49 -50 -94 -83 -150 -112 -132 -67 -121 -74 -121 74 0
102 -4 144 -22 206 -61 214 -170 322 -327 321 -87 0 -153 -31 -214 -100 -69
-79 -104 -162 -109 -261 -4 -82 -7 -89 -87 -251 -45 -92 -110 -209 -143 -259
-82 -123 -199 -245 -269 -279 -49 -24 -58 -26 -93 -15 -49 14 -81 55 -112 141
-21 61 -23 79 -23 285 1 243 14 332 77 524 41 124 82 185 125 189 28 3 36 -2
53 -30 26 -42 26 -102 0 -175 -21 -60 -19 -87 6 -97 46 -18 96 83 97 194 0 99
-37 162 -116 195 -189 79 -394 -122 -467 -460 -21 -95 -202 -444 -309 -595
-56 -79 -134 -160 -155 -160 -9 0 -23 12 -33 26 -23 36 -21 204 5 349 11 61
26 143 33 184 l13 73 -26 23 c-35 30 -106 40 -150 22 -40 -17 -48 -27 -77 -97
-33 -80 -125 -241 -172 -300 -41 -52 -91 -90 -120 -90 -28 0 -44 58 -42 150 3
195 89 450 201 598 76 102 140 129 215 93 52 -25 86 -68 102 -130 9 -36 16
-47 34 -49 38 -6 54 16 47 67 -18 130 -153 235 -301 234 -172 0 -315 -114
-425 -338 -105 -213 -126 -429 -58 -587 40 -93 141 -158 223 -142 69 13 161
93 237 207 l26 38 4 -124 c4 -116 6 -128 37 -191 38 -77 82 -112 153 -122 62
-9 118 19 193 94 66 66 180 234 257 377 l53 100 8 -65 c13 -111 45 -232 78
-298 42 -81 116 -155 185 -183 48 -20 55 -27 65 -62 6 -22 23 -53 39 -69 28
-27 45 -32 103 -28 25 1 27 -1 27 -40 0 -33 -6 -48 -29 -71 -34 -33 -64 -37
-115 -12 -29 13 -38 14 -51 3 -53 -44 48 -111 138 -90 55 12 88 38 115 90 52
104 1 212 -93 194 -27 -5 -36 -2 -49 17 -9 13 -16 27 -16 30 0 4 22 12 50 19
148 36 305 206 475 518 37 67 69 122 71 122 2 0 0 -22 -3 -49 -7 -62 12 -172
41 -236 51 -113 133 -169 247 -169 137 0 252 89 318 248 l29 69 63 22 c115 39
235 113 308 188 l34 36 39 -61 c42 -65 132 -159 262 -274 l79 -70 -72 -94
c-132 -174 -195 -329 -196 -480 0 -70 4 -94 24 -133 60 -122 205 -139 383 -45
148 79 246 219 270 385 22 154 -18 284 -130 418 l-56 68 69 64 c110 101 234
206 305 257 36 26 69 54 73 62 11 20 -10 54 -34 54 -38 0 -217 -140 -380 -297
-47 -46 -90 -83 -96 -83 -17 0 -197 154 -241 207 -69 83 -87 133 -86 238 1
100 23 176 77 279 41 77 117 159 170 185 56 27 128 28 151 2 26 -29 46 -107
46 -181 0 -71 13 -95 47 -88 35 7 48 55 35 141 -19 131 -60 203 -137 238 -43
20 -66 21 -134 8z m-1135 -408 c101 -62 163 -253 151 -465 -4 -54 -9 -101 -13
-105 -10 -10 -166 -5 -209 8 -68 19 -70 21 -50 82 10 30 31 83 47 119 35 78
31 107 -23 161 -39 39 -89 59 -123 51 -10 -3 -30 -24 -45 -48 -14 -24 -29 -44
-32 -44 -12 0 11 80 35 128 24 47 72 99 111 120 33 18 116 14 151 -7z m-76
-647 c30 -8 85 -14 122 -14 78 0 79 -2 44 -75 -46 -100 -108 -144 -180 -131
-69 13 -96 77 -81 191 5 47 9 55 23 50 9 -4 42 -13 72 -21z m1239 -266 c86
-106 104 -178 77 -306 -40 -190 -136 -304 -256 -304 -91 0 -120 38 -120 156 0
99 34 207 99 311 55 88 137 195 149 195 5 0 28 -24 51 -52z"/>
<path d="M1686 5500 c-77 -68 -88 -178 -47 -458 16 -112 32 -206 35 -209 8 -9
162 14 253 38 91 23 242 94 295 139 54 45 92 128 84 183 -14 90 -68 137 -158
137 -53 0 -109 -25 -166 -74 -24 -20 -46 -36 -49 -36 -3 0 -2 20 1 44 9 60 -8
160 -34 196 -28 40 -89 70 -139 70 -31 0 -49 -7 -75 -30z"/>
<path d="M3216 4932 c4 -12 22 -24 52 -33 46 -15 47 -15 47 -58 0 -42 -1 -44
-45 -61 -26 -10 -47 -25 -49 -35 -2 -14 1 -16 15 -11 167 62 264 103 264 111
0 6 -60 30 -132 54 -73 24 -138 46 -145 48 -7 3 -10 -3 -7 -15z m174 -74 c31
-10 32 -12 15 -25 -31 -22 -55 -16 -55 12 0 29 -2 28 40 13z"/>
<path d="M3323 4681 c-80 -37 -109 -137 -60 -208 12 -18 25 -33 29 -33 18 0
17 23 -1 46 -39 49 -19 138 36 163 39 18 98 13 126 -9 34 -27 48 -79 35 -126
-15 -55 7 -69 28 -19 50 121 -75 241 -193 186z"/>
<path d="M3395 4392 c-66 -14 -122 -27 -124 -28 -1 -2 3 -35 10 -73 10 -59 15
-71 32 -71 14 0 17 5 13 17 -4 9 -10 36 -13 60 -5 40 -4 42 23 48 16 4 36 9
45 11 13 4 19 -8 28 -55 9 -47 15 -59 27 -54 10 4 14 14 10 27 -2 11 -8 37
-11 57 l-7 36 43 7 c49 8 54 3 64 -61 5 -32 11 -43 24 -43 16 0 16 4 2 75 -11
55 -19 75 -31 74 -8 -1 -69 -13 -135 -27z"/>
<path d="M3503 4188 c-11 -13 -24 -41 -28 -63 -8 -48 -30 -75 -61 -75 -50 0
-75 74 -34 103 17 12 18 16 7 25 -11 9 -18 7 -34 -11 -30 -33 -34 -54 -19 -92
38 -91 155 -61 172 44 8 50 25 67 53 51 22 -11 27 -30 11 -46 -6 -6 -6 -15 1
-24 8 -13 11 -12 24 4 21 27 19 62 -5 86 -26 26 -62 25 -87 -2z"/>
<path d="M3556 3998 c-7 -13 -17 -43 -20 -68 -4 -24 -12 -50 -18 -57 -17 -21
-76 -16 -88 6 -16 30 -12 60 9 73 15 9 17 15 9 25 -9 11 -15 10 -35 -8 -62
-59 10 -170 91 -139 33 12 59 53 66 103 6 50 32 69 57 44 14 -14 15 -21 6 -37
-15 -23 1 -37 22 -20 19 16 19 50 -1 78 -21 31 -78 31 -98 0z"/>
<path d="M3596 3815 c-47 -16 -75 -41 -92 -82 -19 -44 -18 -69 7 -119 25 -53
91 -90 145 -81 73 12 124 72 124 148 0 98 -93 165 -184 134z m120 -59 c26 -26
34 -42 34 -70 0 -73 -47 -121 -116 -119 -108 3 -152 148 -61 203 51 32 103 26
143 -14z"/>
<path d="M3786 3756 c6 -15 44 -29 54 -20 7 7 -30 34 -47 34 -7 0 -10 -6 -7
-14z"/>
<path d="M3734 3499 c-129 -84 -120 -77 -107 -90 8 -8 19 -6 41 10 56 39 72
17 41 -58 -15 -34 -18 -54 -12 -66 8 -13 14 -7 31 34 l21 51 43 -6 c38 -5 48
-2 75 20 45 38 51 76 18 131 -14 25 -29 45 -33 45 -5 0 -57 -32 -118 -71z
m126 12 c18 -34 12 -78 -12 -95 -12 -9 -31 -16 -41 -16 -20 0 -70 46 -65 60 3
10 87 68 100 69 4 1 12 -8 18 -18z"/>
<path d="M3865 3324 c-122 -92 -122 -91 -109 -104 12 -12 238 156 229 171 -10
15 -16 12 -120 -67z"/>
<path d="M7302 3338 c-43 -21 -42 -96 3 -116 21 -10 33 -9 62 3 89 38 154 -7
107 -74 -14 -19 -23 -22 -50 -18 -36 6 -56 -9 -33 -24 28 -18 70 -9 100 20 47
47 36 111 -23 136 -26 10 -40 10 -84 -2 -29 -9 -60 -13 -69 -9 -23 8 -15 50
10 54 30 6 42 21 25 32 -18 12 -19 12 -48 -2z"/>
<path d="M3950 3263 c-19 -10 -45 -34 -58 -53 -20 -29 -23 -44 -20 -88 4 -45
10 -59 41 -89 30 -31 44 -37 89 -40 84 -6 144 42 155 125 15 110 -108 196
-207 145z m141 -49 c38 -36 46 -82 24 -128 -48 -101 -197 -79 -212 31 -14 109
109 173 188 97z"/>
<path d="M7127 3163 c-2 -4 21 -70 51 -145 43 -106 59 -135 68 -127 10 9 9 21
-7 61 l-20 51 22 23 c27 29 39 30 90 3 38 -19 84 -19 63 0 -22 20 -263 141
-267 134z m113 -91 c0 -10 -21 -32 -30 -32 -8 0 -30 46 -30 61 0 5 14 3 30 -6
17 -9 30 -19 30 -23z"/>
<path d="M7024 3072 c-8 -5 -3 -35 17 -102 16 -52 29 -101 29 -108 0 -7 -41
15 -91 49 -65 44 -94 58 -102 50 -6 -6 -9 -12 -6 -15 17 -16 239 -156 247
-156 5 0 -6 53 -25 118 -45 149 -55 174 -69 164z"/>
<path d="M4216 3048 c-20 -28 -20 -55 -1 -88 18 -31 19 -82 3 -98 -7 -7 -27
-12 -45 -12 -37 0 -58 28 -49 65 7 27 -12 45 -25 24 -31 -48 15 -123 74 -123
77 0 110 76 70 159 -16 33 -16 37 -1 52 21 20 46 11 58 -22 11 -28 30 -25 30
3 0 34 -29 62 -65 62 -24 0 -39 -7 -49 -22z"/>
<path d="M6812 2921 c-10 -6 6 -37 62 -125 71 -108 88 -127 99 -108 2 4 -30
60 -72 124 -55 84 -80 115 -89 109z"/>
<path d="M4431 2796 c-72 -115 -81 -136 -58 -136 10 0 31 32 135 200 18 30 20
39 9 43 -10 4 -37 -30 -86 -107z"/>
<path d="M4512 2740 c-57 -107 -67 -140 -43 -140 4 0 27 40 51 90 24 49 46 87
49 84 3 -3 8 -58 11 -122 4 -91 8 -117 19 -117 15 0 143 234 135 247 -12 20
-27 3 -66 -77 -23 -47 -46 -85 -50 -85 -5 0 -9 39 -9 88 -2 97 -9 144 -24 149
-6 2 -39 -51 -73 -117z"/>
<path d="M6656 2830 c-57 -17 -106 -83 -106 -141 0 -40 34 -101 68 -121 73
-43 167 -19 204 52 59 113 -46 246 -166 210z m116 -59 c29 -26 33 -35 33 -81
0 -46 -4 -55 -33 -81 -86 -77 -216 2 -183 111 24 82 119 108 183 51z"/>
<path d="M4734 2628 c-27 -68 -50 -125 -52 -129 -2 -4 4 -9 12 -12 10 -4 21
11 37 51 12 31 23 58 24 60 1 1 23 -6 48 -17 25 -11 48 -17 51 -14 14 14 4 25
-39 43 l-45 19 15 38 c9 20 18 39 20 42 3 2 23 -3 46 -12 40 -16 59 -15 59 2
0 9 -95 51 -115 51 -6 0 -34 -55 -61 -122z"/>
<path d="M6440 2716 c0 -8 14 -50 30 -93 17 -42 30 -81 30 -86 0 -8 -26 12
-151 113 -20 17 -40 25 -47 21 -12 -7 1 -46 77 -243 6 -17 16 -26 24 -22 12 4
8 23 -20 96 -19 50 -32 93 -29 95 3 3 44 -27 92 -66 81 -66 122 -88 112 -58
-3 6 -25 67 -49 134 -24 68 -50 123 -56 123 -7 0 -13 -6 -13 -14z"/>
<path d="M4987 2628 c-80 -100 -145 -193 -141 -200 10 -16 23 -7 54 36 31 43
32 43 70 34 38 -10 38 -11 45 -69 5 -44 11 -59 22 -59 14 0 15 12 10 83 -4 45
-7 112 -7 150 0 37 -4 67 -9 67 -5 0 -25 -19 -44 -42z m23 -74 c0 -32 -2 -35
-22 -28 -32 9 -32 10 -11 38 25 35 33 32 33 -10z"/>
<path d="M5166 2618 c-3 -7 -14 -62 -26 -123 -11 -60 -22 -118 -24 -127 -3
-12 2 -18 14 -18 14 0 20 15 30 78 7 42 16 86 21 97 8 23 5 30 50 -100 17 -49
38 -96 47 -103 14 -11 19 2 43 125 16 81 23 142 18 147 -14 16 -20 1 -40 -95
-11 -51 -21 -94 -23 -96 -2 -2 -21 47 -42 108 -36 105 -58 139 -68 107z"/>
<path d="M6032 2607 c-41 -8 -51 -13 -48 -26 3 -9 15 -68 27 -131 12 -63 25
-119 29 -123 4 -4 37 -3 74 4 51 10 66 16 66 29 0 16 -5 16 -59 5 l-59 -12 -6
30 c-11 57 -8 64 32 71 60 11 72 16 72 32 0 12 -8 13 -37 8 -77 -16 -86 -13
-95 30 -10 47 -4 52 63 61 35 5 46 10 42 21 -6 16 -24 16 -101 1z"/>
<path d="M5380 2575 c0 -9 12 -18 31 -22 l31 -6 -6 -66 c-3 -36 -9 -92 -12
-123 -5 -48 -4 -58 8 -58 17 0 23 29 34 163 l7 87 32 -6 c24 -4 34 -2 38 10 7
18 -5 22 -100 31 -53 5 -63 4 -63 -10z"/>
<path d="M5707 2559 c-32 -24 -36 -68 -9 -91 9 -9 36 -25 58 -36 47 -24 61
-55 38 -89 -21 -33 -67 -31 -92 4 -26 35 -48 23 -27 -16 30 -59 120 -59 151 1
28 55 0 106 -75 138 -32 13 -44 31 -35 55 7 17 54 21 54 5 0 -5 7 -10 15 -10
18 0 20 24 3 38 -28 22 -55 22 -81 1z"/>
<path d="M5580 2476 c0 -51 -3 -114 -6 -140 -6 -42 -5 -46 14 -46 20 0 21 6
24 140 3 128 1 140 -14 140 -16 0 -18 -11 -18 -94z"/>
</g>
</svg>
